<svg xmlns="http://www.w3.org/2000/svg" width="100" height="100" viewBox="0 0 1411 1080" version="1.1"><path d="" stroke="none" fill="#000000" fill-rule="evenodd"/><path d="M 656.653 27.437 C 650.209 30.594, 646.848 33.970, 643.436 40.713 C 636.289 54.840, 641.471 71.958, 655.198 79.563 C 659.965 82.203, 661.409 82.500, 669.500 82.496 C 679.525 82.492, 682.235 81.493, 689.137 75.257 C 695.678 69.348, 698.397 62.986, 698.453 53.461 C 698.497 46.001, 698.248 45.006, 695 39.642 C 688.889 29.548, 680.852 25.039, 669 25.053 C 663.146 25.061, 660.436 25.584, 656.653 27.437 M 607.500 85.407 C 593.311 88.916, 580.066 99.772, 573.636 113.162 C 569.496 121.784, 568.058 127.409, 568.024 135.114 C 567.958 150.397, 572.884 161.512, 585.701 175 C 604.135 194.399, 637.610 227, 639.096 227 C 640.940 227, 659 208.825, 659 206.969 C 659 206.254, 646.015 192.581, 630.145 176.585 C 598.469 144.656, 598.470 144.659, 599.180 133.521 C 599.492 128.622, 600.175 126.459, 602.287 123.690 C 606.938 117.592, 610.671 115.584, 618.136 115.162 C 629.201 114.537, 630.487 115.330, 650.661 135.242 C 666.204 150.582, 669.087 153.018, 670.661 152.144 C 671.672 151.582, 679.626 143.884, 688.335 135.038 C 697.044 126.192, 705.913 118.065, 708.045 116.977 C 710.801 115.571, 713.920 115, 718.847 115 C 725.019 115, 726.292 115.354, 730.531 118.250 C 739.498 124.375, 742.621 135.858, 737.886 145.290 C 736.501 148.049, 718.066 167.256, 684.386 201.031 C 656.124 229.372, 633 253.231, 633 254.050 C 633 255.997, 651.085 274, 653.041 274 C 655.162 274, 758.974 169.572, 762.875 163.514 C 778.976 138.509, 768.983 103.085, 742 89.520 C 734.098 85.547, 727.222 83.992, 717.701 84.024 C 702.891 84.075, 691.871 88.888, 678.779 101.025 C 674.047 105.411, 669.620 109, 668.940 109 C 668.260 109, 663.799 105.235, 659.026 100.634 C 650.024 91.957, 641.983 87.156, 632.972 85.079 C 627.002 83.704, 613.694 83.875, 607.500 85.407 M 869.343 235.500 C 869.346 239.900, 869.522 241.576, 869.733 239.224 C 869.945 236.872, 869.942 233.272, 869.727 231.224 C 869.512 229.176, 869.339 231.100, 869.343 235.500 M 851.750 273.513 C 842.266 283.585, 839.851 287.501, 848.081 279.462 C 854.073 273.609, 861.412 265.068, 860.877 264.570 C 860.669 264.378, 856.563 268.402, 851.750 273.513 M 928.188 282 C 928.072 285.025, 927.746 289.300, 927.463 291.500 C 927.017 294.964, 927.091 295.172, 928.014 293.055 C 928.600 291.710, 928.926 287.435, 928.739 283.555 C 928.426 277.100, 928.380 276.968, 928.188 282 M 868.237 333 C 868.237 341.163, 868.538 345.314, 869 343.500 C 869.420 341.850, 869.763 337.125, 869.763 333 C 869.763 328.875, 869.420 324.150, 869 322.500 C 868.538 320.686, 868.237 324.837, 868.237 333 M 618.321 676.164 C 614.844 677.884, 613.529 682.188, 615.384 685.776 C 617.103 689.100, 618.757 690, 623.148 690 C 627.388 690, 629.623 688.519, 630.897 684.867 C 631.811 682.245, 631.690 681.151, 630.202 678.596 C 628.718 676.044, 627.707 675.464, 624.451 675.293 C 622.278 675.179, 619.520 675.571, 618.321 676.164 M 824.416 682.956 C 806.746 689.245, 797 704.239, 797 725.134 C 797 742.898, 806.024 757.947, 820.782 764.792 C 825.906 767.169, 827.694 767.447, 838 767.472 C 852.093 767.506, 857.565 765.502, 864.529 757.756 C 869.235 752.522, 869.757 751.157, 867.800 749.200 C 865.700 747.100, 863.910 747.868, 857.862 753.467 C 851.048 759.776, 846.301 761.499, 838.614 760.456 C 832.261 759.594, 827.421 757.169, 823.407 752.838 C 815.449 744.250, 812.531 734.960, 813.273 720.571 C 813.834 709.697, 815.520 703.764, 819.824 697.522 C 827.476 686.424, 844.220 683.670, 851.228 692.358 C 853.855 695.615, 853.493 701.625, 850.452 705.239 C 847.381 708.890, 847.609 711.046, 851.252 712.792 C 857.020 715.556, 865.145 710.890, 867.080 703.703 C 870.754 690.058, 859.219 680.906, 838.556 681.073 C 832.521 681.122, 827.804 681.750, 824.416 682.956 M 287.741 684.125 C 284.233 686.088, 286.922 690, 291.779 690 C 292.830 690, 294.547 690.947, 295.595 692.105 C 297.382 694.080, 297.500 696.128, 297.500 725.193 L 297.500 756.177 295.139 758.088 C 293.841 759.140, 291.758 760, 290.512 760 C 287.321 760, 285.356 762.519, 287 764.500 C 288.055 765.772, 292.767 766, 317.967 766 C 352.773 766, 350.366 766.831, 352.151 754.205 C 353.384 745.489, 352.684 743, 349 743 C 346.680 743, 345.228 744.878, 343.049 750.693 C 340.350 757.898, 336.685 760, 326.820 760 C 322.261 760, 317.498 759.399, 315.527 758.576 C 311.296 756.808, 310.789 754.570, 311.200 739.500 L 311.500 728.500 323.489 728 C 334.006 727.561, 335.520 727.279, 335.821 725.702 C 336.564 721.818, 334.319 721, 322.923 721 L 312.091 721 311.496 717.750 C 311.170 715.962, 311.037 709.100, 311.201 702.500 L 311.500 690.500 322.295 690.216 C 332.619 689.944, 333.184 690.037, 335.239 692.344 C 336.421 693.670, 338.313 697.623, 339.444 701.128 C 341.234 706.676, 341.847 707.540, 344.183 707.810 C 348.386 708.296, 349.295 705.447, 348.466 694.390 C 348.078 689.209, 347.251 684.643, 346.630 684.244 C 344.870 683.113, 289.748 683.002, 287.741 684.125 M 377.258 690.819 C 376.575 691.253, 374.775 694.059, 373.258 697.054 C 371.102 701.311, 369.532 702.988, 366.068 704.735 C 363.631 705.965, 361.310 707.499, 360.911 708.145 C 359.510 710.410, 361.178 712, 364.955 712 L 368.696 712 369.348 722.656 C 369.707 728.516, 370 737.801, 370 743.290 C 370 755.061, 371.232 759.890, 375.209 763.700 C 377.986 766.361, 378.598 766.500, 387.538 766.500 C 395.890 766.500, 397.190 766.254, 399.140 764.305 C 402.575 760.869, 400.444 759.268, 393.142 759.796 C 382.733 760.549, 381.659 757.579, 382.195 729.500 L 382.500 713.500 388.962 713.197 C 396.086 712.862, 398.248 711.735, 397.798 708.588 C 397.534 706.736, 396.651 706.443, 390 706 L 382.500 705.500 382.199 698.528 C 381.870 690.896, 380.501 688.760, 377.258 690.819 M 661.366 690.751 C 660.742 691.163, 659.225 693.648, 657.995 696.272 C 655.727 701.112, 653.739 703.101, 648.024 706.246 C 643.598 708.682, 644.286 711.345, 649.510 712 L 653.500 712.500 654.054 734 C 654.675 758.065, 655.462 761.482, 661.190 764.974 C 667.708 768.948, 685 766.903, 685 762.158 C 685 759.660, 683.235 759.025, 678.184 759.702 C 672.463 760.469, 669.548 759.485, 668.037 756.274 C 666.601 753.223, 665.257 720.096, 666.387 715.595 C 667.010 713.113, 667.341 713, 673.984 713 C 679.819 713, 681.095 712.692, 681.961 711.072 C 684.016 707.232, 682.345 706.101, 674.159 705.790 L 666.500 705.500 666 698.009 C 665.498 690.495, 664.388 688.756, 661.366 690.751 M 432.052 706.170 C 420.517 709.481, 412 722.089, 412 735.853 C 412 748.578, 417.465 758.372, 427.402 763.454 C 432.550 766.086, 434.213 766.425, 441.859 766.399 C 448.761 766.376, 451.350 765.929, 454.723 764.178 C 463.553 759.596, 469.030 751.100, 464.320 749.293 C 463.147 748.842, 461.563 749.861, 459.070 752.670 C 451.498 761.200, 442.983 762.213, 433.634 755.697 C 429.931 753.115, 426.022 744.684, 426.010 739.250 L 426 735 441.257 735 C 456.546 735, 462.661 734.137, 464.164 731.768 C 465.672 729.393, 465.039 720.996, 463.059 717.115 C 460.523 712.145, 455.007 707.373, 450.277 706.060 C 445.662 704.779, 436.712 704.833, 432.052 706.170 M 483.657 706.876 C 479.893 707.870, 476.432 709.302, 475.964 710.058 C 474.815 711.918, 476.485 713.728, 480.077 714.517 C 481.694 714.872, 483.463 715.996, 484.008 717.016 C 484.564 718.053, 485 727.190, 485 737.779 C 485 758.526, 484.889 758.925, 478.685 760.401 C 476.500 760.921, 475.941 761.566, 476.185 763.285 C 476.494 765.455, 476.793 765.500, 491 765.500 C 504.923 765.500, 505.512 765.417, 505.797 763.420 C 506.028 761.804, 505.192 760.986, 502.047 759.751 L 498 758.161 498 739.167 L 498 720.173 502.197 717.087 C 506.590 713.856, 510.327 713.132, 511.682 715.250 C 512.122 715.938, 512.486 718.300, 512.491 720.500 C 512.500 724.275, 512.682 724.518, 515.733 724.812 C 523.687 725.580, 527.219 714.065, 520.952 707.798 C 518.219 705.065, 517.432 704.804, 513.335 705.266 C 510.459 705.590, 507.130 706.933, 504.353 708.890 C 501.927 710.601, 499.570 712, 499.115 712 C 498.661 712, 497.873 710.538, 497.363 708.750 C 496.206 704.688, 493.398 704.305, 483.657 706.876 M 543.500 705.640 C 538.203 706.840, 531.432 709.311, 530.843 710.260 C 529.652 712.178, 531.086 713.793, 534.557 714.445 C 536.437 714.797, 538.431 715.937, 538.988 716.977 C 539.569 718.063, 540 726.960, 540 737.863 C 540 758.686, 539.859 759.213, 533.953 760.510 C 531.538 761.041, 530.950 761.643, 531.193 763.342 C 531.489 765.421, 532.018 765.510, 545.605 765.777 C 556.827 765.997, 559.952 765.763, 560.890 764.633 C 562.324 762.905, 559.916 760, 557.051 760 C 553.375 760, 552.894 757.705, 552.694 739.193 C 552.475 718.905, 552.603 718.507, 560.500 714.881 C 565.306 712.674, 568.942 712.531, 573.360 714.377 C 579.061 716.759, 580 720.345, 580 739.746 C 580 758.320, 579.809 758.944, 573.685 760.401 C 571.500 760.921, 570.941 761.566, 571.185 763.285 C 571.491 765.434, 571.912 765.508, 585.363 765.779 C 598.782 766.049, 602 765.478, 602 762.827 C 602 762.316, 600.313 761.195, 598.250 760.337 C 596.188 759.478, 594.169 758.263, 593.765 757.638 C 593.361 757.012, 593.024 749.435, 593.015 740.799 C 592.996 721.480, 591.959 716.068, 587.284 710.893 C 580.941 703.871, 567.790 702.944, 559.312 708.920 C 553.700 712.875, 552.208 712.842, 551.813 708.750 C 551.540 705.917, 551.115 705.480, 548.500 705.344 C 546.850 705.258, 544.600 705.391, 543.500 705.640 M 616.994 706.423 C 607.425 709.067, 605.227 712.525, 612 714.280 C 613.923 714.778, 615.828 715.707, 616.233 716.343 C 617.113 717.726, 617.263 755.152, 616.397 757.407 C 616.066 758.271, 614.041 759.451, 611.897 760.028 C 607.783 761.136, 606.462 764.196, 609.582 765.393 C 612.151 766.379, 636.366 766.055, 638 765.013 C 639.896 763.805, 638.218 760.674, 635.393 760.147 C 634.352 759.952, 632.712 759.095, 631.750 758.242 C 630.174 756.844, 630 754.277, 630 732.427 C 630 719.082, 629.727 707.452, 629.393 706.582 C 628.660 704.673, 623.567 704.608, 616.994 706.423 M 893 706.175 C 884.380 708.624, 880.500 714.925, 882.981 722.442 C 884.263 726.327, 886.482 728, 890.352 728 C 896.165 728, 897.184 726.225, 894.278 721.162 C 892.145 717.445, 893.319 713.185, 897.017 711.229 C 900.264 709.512, 908.473 710.213, 910.907 712.416 C 914.324 715.508, 916.332 728.268, 913.800 730.800 C 913.140 731.460, 910.191 732, 907.247 732 C 895.196 732, 882.281 737.098, 879.273 743.043 C 877.567 746.413, 877.683 755.486, 879.476 758.953 C 882.079 763.987, 887.499 766.512, 895.500 766.419 C 902.367 766.339, 906.426 765.110, 912.164 761.375 C 914.783 759.671, 914.887 759.694, 918.392 762.771 C 922.363 766.258, 927.964 767.750, 931.892 766.369 C 935.617 765.059, 935.716 762.421, 932.109 760.556 C 927.861 758.360, 927.022 754.284, 926.949 735.500 C 926.879 717.342, 926.096 713.975, 920.990 709.865 C 915.553 705.488, 901.799 703.675, 893 706.175 M 952 706.400 C 940.883 708.906, 938.846 712.417, 947.282 714.535 C 948.806 714.917, 950.491 716.049, 951.026 717.049 C 951.562 718.050, 951.993 726.886, 951.985 736.684 C 951.969 756.305, 951.301 759.285, 946.800 759.809 C 943.160 760.234, 941.342 762.503, 943.022 764.527 C 944.070 765.789, 946.730 766.005, 958.395 765.777 C 972.186 765.506, 972.507 765.450, 972.821 763.239 C 973.080 761.415, 972.553 760.861, 970.093 760.369 C 968.417 760.033, 966.549 759.161, 965.943 758.431 C 964.486 756.676, 963.534 736.467, 964.448 726.709 L 965.172 718.983 969.551 716.417 C 971.959 715.006, 974.957 713.997, 976.214 714.176 C 978.151 714.451, 978.513 715.122, 978.586 718.580 C 978.696 723.816, 979.486 725, 982.870 725 C 990.834 725, 993.906 712.227, 987.213 706.946 C 983.683 704.160, 977.498 704.743, 972.003 708.379 C 966.753 711.854, 964.226 711.814, 963.816 708.250 C 963.555 705.978, 962.978 705.470, 960.500 705.330 C 958.850 705.237, 955.025 705.718, 952 706.400 M 1018.994 705.876 C 1011.526 708.322, 1004.858 714.244, 1000.839 722 C 998.903 725.735, 998.506 728.030, 998.503 735.500 C 998.501 743.094, 998.904 745.360, 1001.083 750.006 C 1005.870 760.210, 1013.508 765.656, 1024.467 766.679 C 1032.325 767.413, 1038.864 765.878, 1044.553 761.964 C 1050.071 758.167, 1053.700 752.549, 1051.977 750.472 C 1050.165 748.289, 1049.156 748.629, 1045.665 752.596 C 1039.150 759.998, 1031.061 761.834, 1022.962 757.750 C 1017.400 754.945, 1013.138 747.692, 1012.755 740.379 L 1012.500 735.500 1030 734.872 C 1039.625 734.526, 1047.595 734.189, 1047.711 734.122 C 1047.827 734.055, 1048.840 733.015, 1049.961 731.811 C 1054.939 726.469, 1049.724 713.024, 1040.710 707.957 C 1036.272 705.463, 1023.879 704.275, 1018.994 705.876 M 692.362 707.500 C 691.419 709.957, 692.679 711.771, 695.807 712.458 C 699.738 713.321, 702.350 716.291, 705.522 723.503 C 706.973 726.801, 708.554 730.400, 709.037 731.500 C 709.520 732.600, 711.976 738.900, 714.494 745.500 C 717.013 752.100, 719.732 758.978, 720.537 760.784 C 722.850 765.975, 722.302 769.055, 717.854 775.862 C 713.988 781.778, 709.169 785.988, 706.250 785.996 C 703.371 786.005, 700.872 781.967, 701.189 777.820 C 701.552 773.080, 699.773 771.338, 695.629 772.378 C 688.238 774.233, 686.597 782.408, 692.355 788.690 C 695.375 791.986, 696.320 792.396, 701.817 792.793 C 707.018 793.169, 708.561 792.862, 712.221 790.716 C 718.559 787.002, 725.823 775.775, 731.771 760.500 C 734.211 754.234, 742.759 733.180, 743.951 730.500 C 744.440 729.400, 746.022 725.812, 747.467 722.527 C 750.760 715.037, 752.421 713.199, 756.602 712.415 C 760.428 711.697, 762.482 709.699, 761.643 707.513 C 760.795 705.303, 737.833 705.292, 736 707.500 C 734.345 709.495, 736.329 712, 739.563 712 C 744.061 712, 744.086 711.856, 735.646 734.500 C 733.185 741.100, 730.568 746.624, 729.829 746.776 C 728.999 746.947, 727.566 744.658, 726.075 740.776 C 716.521 715.908, 713.088 709.770, 707.400 707.394 C 702.781 705.464, 693.117 705.532, 692.362 707.500 M 432.278 713.750 C 429.013 716.811, 425.435 725.084, 426.347 727.462 C 426.823 728.704, 428.858 729, 436.904 729 C 449.787 729, 452 728.190, 452 723.475 C 452 715.826, 447.313 711, 439.883 711 C 436.165 711, 434.613 711.561, 432.278 713.750 M 1019.832 712.709 C 1016.246 714.933, 1013 720.957, 1013 725.386 L 1013 729 1022.750 728.985 C 1033.059 728.970, 1037.229 727.764, 1037.834 724.625 C 1038.517 721.078, 1036.836 715.753, 1034.288 713.391 C 1031.160 710.492, 1023.953 710.151, 1019.832 712.709 M 901.818 738.662 C 894.917 741, 891.667 744.833, 891.667 750.635 C 891.667 756.348, 894.297 759, 899.963 759 C 907.767 759, 915.386 750.003, 914.783 741.500 C 914.506 737.588, 914.412 737.495, 910.500 737.288 C 908.300 737.172, 904.393 737.790, 901.818 738.662 M 697.278 841.093 C 694.410 842.154, 692.806 845.379, 693.591 848.506 C 695.377 855.621, 706 853.580, 706 846.122 C 706 841.861, 701.780 839.428, 697.278 841.093 M 465.836 843.899 C 455.135 846.113, 450.041 856.315, 454.905 865.790 C 457.239 870.337, 460.454 872.288, 469.954 874.920 C 478.047 877.163, 481 879.189, 481 882.500 C 481 888.611, 471.512 889.979, 463.661 885 C 457.972 881.392, 456.986 881.321, 454.174 884.314 C 451.297 887.377, 451.432 889.393, 454.719 892.440 C 460.982 898.248, 476.886 899.998, 484.500 895.718 C 490.125 892.556, 492.198 888.096, 491.749 880.122 C 491.418 874.265, 491.091 873.472, 487.743 870.404 C 485.738 868.566, 482.838 866.791, 481.299 866.458 C 479.759 866.126, 475.575 864.874, 472 863.677 C 466.143 861.716, 465.467 861.208, 465.164 858.549 C 464.528 852.961, 471.914 851.132, 479.500 855 C 484.700 857.651, 485.473 857.549, 488.094 853.868 C 490.654 850.273, 490.066 848.523, 485.394 845.834 C 482.013 843.888, 471.106 842.809, 465.836 843.899 M 528.013 858.186 C 525.487 859.489, 522.262 862.321, 520.632 864.668 C 518.036 868.404, 517.737 869.650, 517.737 876.713 C 517.737 887.389, 520.417 892.198, 528.700 896.383 C 532.684 898.396, 543.104 898.518, 546.800 896.595 C 553.969 892.865, 555.657 887.532, 550.424 885.147 C 547.716 883.914, 545.370 884.644, 543.045 887.445 C 540.857 890.083, 535.238 889.391, 531.923 886.077 C 526.538 880.692, 527.471 880.093, 541.750 879.780 L 554.500 879.500 554.500 872.823 C 554.500 865.625, 553.062 862.628, 547.677 858.608 C 543.447 855.450, 533.723 855.241, 528.013 858.186 M 695.557 858.223 C 694.297 860.020, 694 863.662, 694 877.288 C 694 886.986, 694.439 894.952, 695.035 896.066 C 696.222 898.283, 701.846 898.754, 703.800 896.800 C 704.648 895.952, 705 890.097, 705 876.835 C 705 859.306, 704.873 858.002, 703.066 857.035 C 699.988 855.388, 697.237 855.823, 695.557 858.223 M 744.459 857.880 C 736.389 861.545, 732.511 868.974, 733.180 879.482 C 733.918 891.080, 741.160 898, 752.559 898 C 759.155 898, 764.236 895.882, 767.020 891.972 C 770.181 887.533, 769.412 885.136, 764.328 883.580 C 762.711 883.085, 761.362 883.691, 759.044 885.957 C 753.597 891.282, 746.980 889.352, 744.960 881.851 C 743.603 876.814, 744.588 870.412, 747.106 867.894 C 749.711 865.289, 756.100 865.348, 758.500 868 C 759.495 869.100, 761.040 870, 761.932 870 C 764.653 870, 768 867.020, 768 864.598 C 768 857.888, 753.531 853.759, 744.459 857.880 M 805.007 857.593 C 796.855 861.128, 793.633 866.588, 793.556 877 C 793.484 886.594, 796.615 892.667, 803.302 895.904 C 811.518 899.881, 823.374 898.154, 827.971 892.309 C 830.271 889.386, 829.704 887.415, 826.014 885.507 C 823.482 884.198, 823.007 884.284, 819.885 886.619 C 817.163 888.655, 815.719 889.051, 812.510 888.638 C 808.257 888.092, 805 885.165, 805 881.889 C 805 880.142, 805.901 880, 816.965 880 C 828.122 880, 829.006 879.857, 830.061 877.886 C 831.576 875.054, 830.383 867.410, 827.758 863.132 C 823.898 856.842, 812.909 854.166, 805.007 857.593 M 863.415 857.421 C 861.719 858.160, 859.312 860.055, 858.067 861.632 C 856.188 864.013, 855.877 865.400, 856.238 869.801 C 856.484 872.799, 857.364 875.793, 858.265 876.693 C 859.140 877.569, 863.377 879.479, 867.678 880.939 C 874.595 883.285, 875.500 883.876, 875.500 886.046 C 875.500 888.164, 874.982 888.543, 871.719 888.812 C 869.172 889.022, 866.809 888.427, 864.484 886.990 C 860.475 884.512, 857.705 884.995, 855.355 888.581 C 854.037 890.592, 853.987 891.280, 855.065 892.578 C 859.763 898.240, 875.303 900.106, 881.633 895.768 C 885.481 893.132, 887 890.198, 887 885.403 C 887 879.902, 884.629 876.387, 879.771 874.686 C 877.422 873.864, 873.700 872.566, 871.500 871.804 C 868.294 870.692, 867.500 869.929, 867.500 867.958 C 867.500 865.796, 867.922 865.512, 871 865.600 C 872.925 865.654, 876.002 866.329, 877.837 867.100 C 880.978 868.418, 881.287 868.361, 883.087 866.139 C 886.163 862.344, 885.533 860.144, 880.750 857.973 C 875.807 855.729, 867.881 855.477, 863.415 857.421 M 583.250 857.662 C 581.502 858.367, 581.456 895.056, 583.200 896.800 C 583.860 897.460, 586.101 898, 588.181 898 C 592.780 898, 592.841 897.809, 593.223 882.160 C 593.481 871.616, 593.666 870.685, 595.861 868.910 C 597.159 867.859, 599.634 866.993, 601.361 866.985 C 603.087 866.976, 604.993 866.639, 605.596 866.235 C 607.361 865.051, 608.221 859.971, 606.921 858.404 C 605.503 856.696, 600.029 856.574, 596.520 858.173 C 594.551 859.070, 593.670 859.070, 592.773 858.173 C 591.611 857.011, 585.656 856.691, 583.250 857.662 M 629.143 858.328 C 628.311 859.331, 629.607 863.749, 634.439 876.379 C 642.685 897.931, 642.731 898, 648.988 898 C 652.958 898, 654.147 897.594, 655.035 895.935 C 657.694 890.966, 669.012 859.475, 668.561 858.299 C 668.267 857.533, 666.420 857, 664.054 857 C 659.152 857, 658.122 858.354, 654.098 870.087 C 650.180 881.513, 649.956 882, 648.604 882 C 647.954 882, 645.680 876.938, 643.552 870.750 C 641.424 864.563, 639.249 858.938, 638.719 858.250 C 637.440 856.591, 630.538 856.647, 629.143 858.328 M 532.166 866.597 C 530.737 867.597, 530.001 868.997, 530.193 870.347 C 530.464 872.250, 531.224 872.535, 536.750 872.798 L 543 873.095 543 870.248 C 543 868.681, 542.460 866.860, 541.800 866.200 C 540.098 864.498, 534.854 864.713, 532.166 866.597 M 807.635 867.073 C 802.557 871.067, 805.226 873.449, 814.072 872.816 C 819.102 872.456, 820.392 870.195, 817.433 866.926 C 815.158 864.412, 810.936 864.476, 807.635 867.073" stroke="none" fill="#30b0ff" fill-rule="evenodd"/><path d="M 513.489 184.040 C 496.437 186.271, 481.802 197.153, 474.073 213.348 C 470.301 221.251, 469.055 226.727, 469.024 235.540 C 468.973 250.229, 474.209 261.806, 487.029 275.349 C 491.413 279.981, 495 284.102, 495 284.509 C 495 284.915, 490.980 289.453, 486.066 294.593 C 473.260 307.988, 468.969 317.985, 469.024 334.299 C 469.055 343.303, 470.188 348.276, 474.090 356.536 C 477.655 364.079, 489.575 377, 492.969 377 C 494.121 377, 495.306 377.633, 495.603 378.408 C 495.900 379.182, 498.248 380.715, 500.822 381.815 C 504.557 383.411, 508.272 383.883, 519.251 384.157 C 526.813 384.346, 533.001 384.224, 533.001 383.887 C 533 382.806, 545.663 377, 548.023 377 C 550.521 377, 561 366.959, 561 364.566 C 561 363.124, 566.489 358, 568.034 358 C 569.489 358, 581 346.699, 581 345.271 C 581 343.209, 586.978 337.145, 589.345 336.805 C 590.513 336.637, 592.376 335.055, 593.484 333.289 C 594.593 331.522, 596.007 330.060, 596.627 330.039 C 598.066 329.989, 611 315.589, 611 314.036 C 611 312.440, 595.114 296.171, 592.855 295.454 C 591.460 295.011, 584.827 301.183, 564.464 321.868 C 549.850 336.714, 535.740 350.242, 533.109 351.930 C 528.900 354.631, 527.457 355, 521.113 355 C 513.785 355, 509.626 353.664, 506.962 350.454 C 506.196 349.531, 504.694 348.453, 503.625 348.057 C 500.964 347.073, 499.092 339.445, 499.071 329.500 C 499.055 321.737, 499.157 321.389, 502.541 317.750 C 504.458 315.688, 506.706 314, 507.535 314 C 508.364 314, 509.555 312.875, 510.182 311.500 C 510.808 310.125, 511.794 309, 512.373 309 C 513.792 309, 522 300.872, 522 299.466 C 522 298.297, 526.152 294, 527.281 294 C 527.640 294, 529.523 292.410, 531.467 290.467 C 537.715 284.218, 537.217 283.201, 519.250 265.533 C 510.587 257.015, 503.047 249.866, 502.492 249.647 C 501.127 249.107, 497.647 233.380, 498.565 231.895 C 498.967 231.244, 499.254 229.314, 499.202 227.606 C 499.132 225.309, 500.057 223.524, 502.756 220.750 C 504.764 218.688, 506.941 217, 507.596 217 C 508.250 217, 509.045 216.325, 509.362 215.500 C 509.686 214.655, 511.174 214, 512.769 214 C 514.326 214, 516.151 213.449, 516.825 212.775 C 517.792 211.808, 518.464 211.808, 520.011 212.775 C 521.090 213.449, 523.033 214, 524.329 214 C 525.625 214, 528.557 215.012, 530.845 216.250 C 533.291 217.574, 555.925 239.378, 585.815 269.205 C 641.978 325.251, 638.173 322.265, 644.423 315.195 C 646.115 313.280, 647.830 310.857, 648.234 309.812 C 648.638 308.767, 650.576 307.240, 652.540 306.419 C 656.089 304.936, 656.107 304.897, 655.428 300.213 C 654.591 294.436, 654.406 294.105, 651.385 292.956 C 650.053 292.450, 648.565 291.015, 648.077 289.768 C 647.054 287.151, 624.370 264.709, 621.750 263.722 C 620.788 263.359, 620 262.471, 620 261.747 C 620 260.166, 610.228 250.533, 607.750 249.671 C 606.788 249.337, 605.998 248.486, 605.996 247.781 C 605.992 246.204, 568.182 208.525, 565.750 207.675 C 564.788 207.338, 564 206.411, 564 205.615 C 564 204.819, 561.188 201.617, 557.750 198.500 C 549.468 190.989, 537.741 185.300, 527.912 184.024 C 523.836 183.495, 520.275 183.105, 520 183.158 C 519.725 183.210, 516.795 183.607, 513.489 184.040 M 428.748 257.427 C 423.352 259.352, 418.226 263.574, 414.882 268.847 C 409.800 276.861, 408.757 284.450, 411.477 293.612 C 413.027 298.830, 419.170 307, 421.543 307 C 422.306 307, 423.392 307.864, 423.957 308.920 C 424.522 309.976, 426.562 311.360, 428.489 311.996 C 433.001 313.486, 443.404 313.624, 446.274 312.234 C 447.498 311.641, 449.738 310.887, 451.250 310.559 C 452.762 310.230, 454 309.311, 454 308.516 C 454 307.721, 454.877 306.601, 455.949 306.027 C 457.021 305.453, 458.484 303.907, 459.199 302.590 C 459.915 301.274, 461.850 298.501, 463.500 296.428 C 466.222 293.009, 466.532 291.857, 466.843 284.006 C 467.175 275.625, 467.104 275.298, 464.593 273.653 C 462.816 272.489, 462 271.066, 462 269.132 C 462 266.335, 459.393 263, 457.206 263 C 456.582 263, 455.618 262.154, 455.064 261.120 C 452.609 256.533, 437.281 254.382, 428.748 257.427" stroke="none" fill="#63ff3d" fill-rule="evenodd"/><path d="M 810.500 184.039 C 803.535 184.892, 797.938 186.808, 791.259 190.625 C 785.640 193.836, 727 251.653, 727 253.982 C 727 254.839, 731.207 259.729, 736.350 264.850 L 745.700 274.161 761.488 258.831 C 770.171 250.399, 783.177 237.598, 790.388 230.384 C 797.600 223.170, 804.535 216.730, 805.801 216.072 C 810.026 213.875, 821.461 213.523, 826.470 215.435 C 837.736 219.738, 842.896 234.146, 837.238 245.500 C 836.416 247.150, 827.926 256.415, 818.371 266.088 C 808.817 275.762, 801 284.047, 801 284.500 C 801 284.953, 808.817 293.238, 818.371 302.912 C 827.926 312.585, 836.552 322.075, 837.541 324 C 838.639 326.139, 839.370 329.833, 839.419 333.500 C 839.519 340.922, 835.962 347.673, 829.805 351.748 C 823.702 355.786, 814.510 356.089, 806.750 352.507 C 803.587 351.048, 801 349.381, 801 348.803 C 801 347.300, 701.226 248, 699.716 248 C 697.933 248, 680 266.228, 680 268.040 C 680 268.867, 704.188 293.664, 733.750 323.146 C 785.763 375.018, 787.756 376.875, 795.428 380.615 C 802.903 384.259, 803.987 384.502, 814.366 384.857 C 825.275 385.231, 836 383.779, 836 381.928 C 836 381.418, 836.813 381, 837.806 381 C 838.799 381, 841.136 379.875, 843 378.500 C 844.864 377.125, 846.919 376, 847.567 376 C 849.216 376, 863 359.255, 863 357.251 C 863 356.347, 864.184 353.900, 865.630 351.812 L 868.260 348.017 867.765 331.759 C 867.284 315.944, 867.184 315.329, 864.103 309.242 C 862.053 305.191, 857.950 299.950, 852.468 294.381 C 847.095 288.923, 844.008 284.997, 844.022 283.639 C 844.035 282.312, 847.588 277.843, 853.385 271.862 C 858.768 266.309, 863.029 261.012, 863.441 259.362 C 864.099 256.721, 865.702 252.688, 868.211 247.363 C 869.871 243.838, 868.773 222.109, 866.732 218.096 C 865.779 216.224, 865 214.190, 865 213.575 C 865 210.710, 856.781 200.459, 850.151 195.056 C 838.606 185.646, 825.997 182.143, 810.500 184.039 M 893.147 256.046 C 884.195 257.866, 876.247 264.694, 872.270 273.984 C 871.416 275.978, 870.778 280.495, 870.778 284.548 C 870.778 290.221, 871.303 292.665, 873.423 296.848 C 876.784 303.481, 882.867 309.402, 888.549 311.572 C 894.742 313.937, 905.954 313.162, 912.445 309.920 C 918.735 306.779, 925.590 298.746, 926.925 292.951 C 928.642 285.504, 928.251 275.407, 926.085 271.210 C 920.300 260.005, 906.019 253.430, 893.147 256.046" stroke="none" fill="#ff2121" fill-rule="evenodd"/><path d="M 630.403 349.250 C 581.702 398.141, 576.056 404.142, 573.243 410 C 569.209 418.400, 568.054 423.632, 568.024 433.645 C 567.961 454.920, 581.397 474.162, 601.895 482.149 C 609.519 485.120, 627.328 485.981, 632.084 483.608 C 633.857 482.724, 635.801 482.001, 636.404 482.003 C 637.007 482.004, 639.525 481.026, 642 479.830 C 644.475 478.633, 647.400 477.253, 648.500 476.764 C 649.600 476.275, 654.506 472.078, 659.403 467.437 C 664.300 462.797, 668.770 459, 669.338 459 C 669.905 459, 674.224 462.766, 678.935 467.368 C 691.716 479.855, 703.284 485, 718.576 485 C 734.606 485, 748.342 478.404, 758.635 465.764 C 766.596 455.988, 769.095 449.450, 769.763 436.656 C 770.532 421.906, 767.800 412.255, 759.793 401.443 C 754.654 394.503, 701.746 342, 699.892 342 C 698.040 342, 680 360.190, 680 362.058 C 680 362.789, 692.549 376.012, 707.887 391.443 C 725.159 408.820, 736.579 421.103, 737.887 423.710 C 742.653 433.208, 738.897 445.697, 729.533 451.485 C 725.359 454.064, 723.705 454.492, 718.077 454.443 C 713.468 454.403, 710.602 453.826, 708.500 452.516 C 706.850 451.488, 697.597 442.851, 687.937 433.323 C 678.277 423.795, 669.908 416, 669.339 416 C 668.770 416, 660.024 424.265, 649.902 434.366 C 633.122 451.114, 631.071 452.837, 626.633 453.910 C 616.977 456.246, 607.727 452.773, 602.375 444.802 C 594.956 433.753, 597.698 423.426, 611.658 409.843 C 615.421 406.181, 626.208 395.381, 635.630 385.843 C 645.051 376.304, 654.276 367.057, 656.130 365.294 C 660.271 361.355, 662.038 359.584, 666.788 354.618 C 668.829 352.483, 678.263 343.057, 687.750 333.672 C 698.246 323.289, 705 315.851, 705 314.675 C 705 312.328, 688.301 295, 686.039 295 C 685.160 295, 660.124 319.413, 630.403 349.250 M 460.200 300.200 C 459.540 300.860, 459 301.947, 459 302.617 C 459 303.286, 457.763 304.734, 456.252 305.835 C 454.740 306.936, 453.772 308.105, 454.099 308.433 C 455.054 309.388, 459.745 305.218, 461.362 301.975 C 462.886 298.921, 462.329 298.071, 460.200 300.200 M 502 318.269 C 499.653 321.019, 499.103 322.143, 500.332 321.684 C 501.339 321.308, 502.298 321, 502.463 321 C 502.628 321, 503.964 319.425, 505.432 317.500 C 509.197 312.565, 506.320 313.209, 502 318.269 M 584.093 340.548 C 579.233 345.888, 580.857 346.740, 585.969 341.532 C 588.757 338.691, 589.839 337, 588.869 337 C 588.018 337, 585.869 338.596, 584.093 340.548 M 564.077 360.589 C 562.385 362.013, 561 364.091, 561 365.207 C 561 366.916, 561.629 366.606, 565 363.235 C 567.200 361.035, 569 358.957, 569 358.618 C 569 357.314, 567.033 358.102, 564.077 360.589 M 540.225 379.681 C 536.224 381.662, 533.177 383.510, 533.453 383.786 C 534.221 384.554, 542.683 381.087, 544.044 379.447 C 544.704 378.651, 546.090 378, 547.122 378 C 548.155 378, 549 377.550, 549 377 C 549 375.498, 548.138 375.761, 540.225 379.681 M 518.500 384 C 510.306 384.410, 509.222 384.633, 512.500 385.239 C 517.531 386.169, 525.894 386.097, 528.434 385.102 C 531.753 383.802, 528.864 383.482, 518.500 384 M 656.462 488.366 C 646.166 493.160, 637.944 507.277, 639.373 517.706 C 640.737 527.653, 648.036 537.903, 656.766 542.129 C 663.349 545.315, 674.702 545.332, 681.195 542.165 C 687.151 539.260, 693.247 533.187, 696.079 527.338 C 698.015 523.337, 698.213 521.720, 697.713 513.993 C 696.871 501.004, 692.172 493.437, 681.700 488.207 C 675.343 485.032, 663.460 485.107, 656.462 488.366" stroke="none" fill="#ff8f00" fill-rule="evenodd"/></svg>